<mxfile host="app.diagrams.net" modified="2022-10-17T02:41:52.419Z" agent="5.0 (Windows NT 10.0; Win64; x64) AppleWebKit/537.36 (KHTML, like Gecko) Chrome/106.0.0.0 Safari/537.36" etag="crGnqG1t71-t47SyYsiv" version="20.4.1" type="github">
  <diagram id="R2lEEEUBdFMjLlhIrx00" name="Page-1">
    <mxGraphModel dx="2385" dy="2534" grid="1" gridSize="10" guides="1" tooltips="1" connect="1" arrows="1" fold="1" page="1" pageScale="1" pageWidth="1200" pageHeight="1920" math="0" shadow="0" extFonts="Permanent Marker^https://fonts.googleapis.com/css?family=Permanent+Marker">
      <root>
        <mxCell id="0" />
        <mxCell id="1" parent="0" />
        <object label="Member" idx="" id="C-vyLk0tnHw3VtMMgP7b-23">
          <mxCell style="shape=table;startSize=30;container=1;collapsible=1;childLayout=tableLayout;fixedRows=1;rowLines=0;fontStyle=1;align=center;resizeLast=1;fillColor=#cce5ff;strokeColor=#36393d;fontSize=18;" parent="1" vertex="1">
            <mxGeometry x="-300" y="-120" width="390" height="180" as="geometry" />
          </mxCell>
        </object>
        <mxCell id="C-vyLk0tnHw3VtMMgP7b-24" value="" style="shape=partialRectangle;collapsible=0;dropTarget=0;pointerEvents=0;fillColor=#eeeeee;points=[[0,0.5],[1,0.5]];portConstraint=eastwest;top=0;left=0;right=0;bottom=1;strokeColor=#36393d;" parent="C-vyLk0tnHw3VtMMgP7b-23" vertex="1">
          <mxGeometry y="30" width="390" height="30" as="geometry" />
        </mxCell>
        <mxCell id="C-vyLk0tnHw3VtMMgP7b-25" value="KEY" style="shape=partialRectangle;overflow=hidden;connectable=0;fillColor=#eeeeee;top=0;left=0;bottom=0;right=0;fontStyle=1;strokeColor=#36393d;" parent="C-vyLk0tnHw3VtMMgP7b-24" vertex="1">
          <mxGeometry width="30" height="30" as="geometry">
            <mxRectangle width="30" height="30" as="alternateBounds" />
          </mxGeometry>
        </mxCell>
        <mxCell id="C-vyLk0tnHw3VtMMgP7b-26" value="ATT" style="shape=partialRectangle;overflow=hidden;connectable=0;fillColor=#eeeeee;top=0;left=0;bottom=0;right=0;align=left;spacingLeft=6;fontStyle=5;strokeColor=#36393d;" parent="C-vyLk0tnHw3VtMMgP7b-24" vertex="1">
          <mxGeometry x="30" width="50" height="30" as="geometry">
            <mxRectangle width="50" height="30" as="alternateBounds" />
          </mxGeometry>
        </mxCell>
        <mxCell id="lmOcfVDpMMb4SoSBJFk1-18" value="DATA" style="shape=partialRectangle;overflow=hidden;connectable=0;fillColor=#eeeeee;top=0;left=0;bottom=0;right=0;align=left;spacingLeft=6;fontStyle=5;strokeColor=#36393d;" vertex="1" parent="C-vyLk0tnHw3VtMMgP7b-24">
          <mxGeometry x="80" width="79" height="30" as="geometry">
            <mxRectangle width="79" height="30" as="alternateBounds" />
          </mxGeometry>
        </mxCell>
        <mxCell id="lmOcfVDpMMb4SoSBJFk1-21" value="NN" style="shape=partialRectangle;overflow=hidden;connectable=0;fillColor=#eeeeee;top=0;left=0;bottom=0;right=0;align=left;spacingLeft=6;fontStyle=5;strokeColor=#36393d;" vertex="1" parent="C-vyLk0tnHw3VtMMgP7b-24">
          <mxGeometry x="159" width="31" height="30" as="geometry">
            <mxRectangle width="31" height="30" as="alternateBounds" />
          </mxGeometry>
        </mxCell>
        <mxCell id="lmOcfVDpMMb4SoSBJFk1-23" value="DEFAULT" style="shape=partialRectangle;overflow=hidden;connectable=0;fillColor=#eeeeee;top=0;left=0;bottom=0;right=0;align=left;spacingLeft=6;fontStyle=5;strokeColor=#36393d;" vertex="1" parent="C-vyLk0tnHw3VtMMgP7b-24">
          <mxGeometry x="190" width="70" height="30" as="geometry">
            <mxRectangle width="70" height="30" as="alternateBounds" />
          </mxGeometry>
        </mxCell>
        <mxCell id="lmOcfVDpMMb4SoSBJFk1-63" value="EX" style="shape=partialRectangle;overflow=hidden;connectable=0;fillColor=#eeeeee;top=0;left=0;bottom=0;right=0;align=left;spacingLeft=6;fontStyle=5;strokeColor=#36393d;" vertex="1" parent="C-vyLk0tnHw3VtMMgP7b-24">
          <mxGeometry x="260" width="130" height="30" as="geometry">
            <mxRectangle width="130" height="30" as="alternateBounds" />
          </mxGeometry>
        </mxCell>
        <mxCell id="lmOcfVDpMMb4SoSBJFk1-57" style="shape=partialRectangle;collapsible=0;dropTarget=0;pointerEvents=0;fillColor=#eeeeee;points=[[0,0.5],[1,0.5]];portConstraint=eastwest;top=0;left=0;right=0;bottom=0;strokeColor=#36393d;" vertex="1" parent="C-vyLk0tnHw3VtMMgP7b-23">
          <mxGeometry y="60" width="390" height="20" as="geometry" />
        </mxCell>
        <mxCell id="lmOcfVDpMMb4SoSBJFk1-58" value="pk" style="shape=partialRectangle;overflow=hidden;connectable=0;fillColor=#eeeeee;top=0;left=0;bottom=0;right=0;strokeColor=#36393d;" vertex="1" parent="lmOcfVDpMMb4SoSBJFk1-57">
          <mxGeometry width="30" height="20" as="geometry">
            <mxRectangle width="30" height="20" as="alternateBounds" />
          </mxGeometry>
        </mxCell>
        <mxCell id="lmOcfVDpMMb4SoSBJFk1-59" value="idx" style="shape=partialRectangle;overflow=hidden;connectable=0;fillColor=#eeeeee;top=0;left=0;bottom=0;right=0;align=left;spacingLeft=6;strokeColor=#36393d;" vertex="1" parent="lmOcfVDpMMb4SoSBJFk1-57">
          <mxGeometry x="30" width="50" height="20" as="geometry">
            <mxRectangle width="50" height="20" as="alternateBounds" />
          </mxGeometry>
        </mxCell>
        <mxCell id="lmOcfVDpMMb4SoSBJFk1-60" value="int" style="shape=partialRectangle;overflow=hidden;connectable=0;fillColor=#eeeeee;top=0;left=0;bottom=0;right=0;align=left;spacingLeft=6;strokeColor=#36393d;" vertex="1" parent="lmOcfVDpMMb4SoSBJFk1-57">
          <mxGeometry x="80" width="79" height="20" as="geometry">
            <mxRectangle width="79" height="20" as="alternateBounds" />
          </mxGeometry>
        </mxCell>
        <mxCell id="lmOcfVDpMMb4SoSBJFk1-61" value="nn" style="shape=partialRectangle;overflow=hidden;connectable=0;fillColor=#eeeeee;top=0;left=0;bottom=0;right=0;align=left;spacingLeft=6;strokeColor=#36393d;" vertex="1" parent="lmOcfVDpMMb4SoSBJFk1-57">
          <mxGeometry x="159" width="31" height="20" as="geometry">
            <mxRectangle width="31" height="20" as="alternateBounds" />
          </mxGeometry>
        </mxCell>
        <mxCell id="lmOcfVDpMMb4SoSBJFk1-62" value="auto indx" style="shape=partialRectangle;overflow=hidden;connectable=0;fillColor=#eeeeee;top=0;left=0;bottom=0;right=0;align=left;spacingLeft=6;strokeColor=#36393d;" vertex="1" parent="lmOcfVDpMMb4SoSBJFk1-57">
          <mxGeometry x="190" width="70" height="20" as="geometry">
            <mxRectangle width="70" height="20" as="alternateBounds" />
          </mxGeometry>
        </mxCell>
        <mxCell id="lmOcfVDpMMb4SoSBJFk1-64" value="1" style="shape=partialRectangle;overflow=hidden;connectable=0;fillColor=#eeeeee;top=0;left=0;bottom=0;right=0;align=left;spacingLeft=6;strokeColor=#36393d;" vertex="1" parent="lmOcfVDpMMb4SoSBJFk1-57">
          <mxGeometry x="260" width="130" height="20" as="geometry">
            <mxRectangle width="130" height="20" as="alternateBounds" />
          </mxGeometry>
        </mxCell>
        <mxCell id="C-vyLk0tnHw3VtMMgP7b-27" value="" style="shape=partialRectangle;collapsible=0;dropTarget=0;pointerEvents=0;fillColor=#eeeeee;points=[[0,0.5],[1,0.5]];portConstraint=eastwest;top=0;left=0;right=0;bottom=0;strokeColor=#36393d;" parent="C-vyLk0tnHw3VtMMgP7b-23" vertex="1">
          <mxGeometry y="80" width="390" height="20" as="geometry" />
        </mxCell>
        <mxCell id="C-vyLk0tnHw3VtMMgP7b-28" value="" style="shape=partialRectangle;overflow=hidden;connectable=0;fillColor=#eeeeee;top=0;left=0;bottom=0;right=0;strokeColor=#36393d;" parent="C-vyLk0tnHw3VtMMgP7b-27" vertex="1">
          <mxGeometry width="30" height="20" as="geometry">
            <mxRectangle width="30" height="20" as="alternateBounds" />
          </mxGeometry>
        </mxCell>
        <mxCell id="C-vyLk0tnHw3VtMMgP7b-29" value="nick" style="shape=partialRectangle;overflow=hidden;connectable=0;fillColor=#eeeeee;top=0;left=0;bottom=0;right=0;align=left;spacingLeft=6;strokeColor=#36393d;" parent="C-vyLk0tnHw3VtMMgP7b-27" vertex="1">
          <mxGeometry x="30" width="50" height="20" as="geometry">
            <mxRectangle width="50" height="20" as="alternateBounds" />
          </mxGeometry>
        </mxCell>
        <mxCell id="lmOcfVDpMMb4SoSBJFk1-19" value="varchar(45)" style="shape=partialRectangle;overflow=hidden;connectable=0;fillColor=#eeeeee;top=0;left=0;bottom=0;right=0;align=left;spacingLeft=6;strokeColor=#36393d;" vertex="1" parent="C-vyLk0tnHw3VtMMgP7b-27">
          <mxGeometry x="80" width="79" height="20" as="geometry">
            <mxRectangle width="79" height="20" as="alternateBounds" />
          </mxGeometry>
        </mxCell>
        <mxCell id="lmOcfVDpMMb4SoSBJFk1-22" value="nn" style="shape=partialRectangle;overflow=hidden;connectable=0;fillColor=#eeeeee;top=0;left=0;bottom=0;right=0;align=left;spacingLeft=6;strokeColor=#36393d;" vertex="1" parent="C-vyLk0tnHw3VtMMgP7b-27">
          <mxGeometry x="159" width="31" height="20" as="geometry">
            <mxRectangle width="31" height="20" as="alternateBounds" />
          </mxGeometry>
        </mxCell>
        <mxCell id="lmOcfVDpMMb4SoSBJFk1-24" style="shape=partialRectangle;overflow=hidden;connectable=0;fillColor=#eeeeee;top=0;left=0;bottom=0;right=0;align=left;spacingLeft=6;strokeColor=#36393d;" vertex="1" parent="C-vyLk0tnHw3VtMMgP7b-27">
          <mxGeometry x="190" width="70" height="20" as="geometry">
            <mxRectangle width="70" height="20" as="alternateBounds" />
          </mxGeometry>
        </mxCell>
        <mxCell id="lmOcfVDpMMb4SoSBJFk1-65" value="harry" style="shape=partialRectangle;overflow=hidden;connectable=0;fillColor=#eeeeee;top=0;left=0;bottom=0;right=0;align=left;spacingLeft=6;strokeColor=#36393d;" vertex="1" parent="C-vyLk0tnHw3VtMMgP7b-27">
          <mxGeometry x="260" width="130" height="20" as="geometry">
            <mxRectangle width="130" height="20" as="alternateBounds" />
          </mxGeometry>
        </mxCell>
        <mxCell id="lmOcfVDpMMb4SoSBJFk1-25" style="shape=partialRectangle;collapsible=0;dropTarget=0;pointerEvents=0;fillColor=#eeeeee;points=[[0,0.5],[1,0.5]];portConstraint=eastwest;top=0;left=0;right=0;bottom=0;strokeColor=#36393d;" vertex="1" parent="C-vyLk0tnHw3VtMMgP7b-23">
          <mxGeometry y="100" width="390" height="20" as="geometry" />
        </mxCell>
        <mxCell id="lmOcfVDpMMb4SoSBJFk1-26" style="shape=partialRectangle;overflow=hidden;connectable=0;fillColor=#eeeeee;top=0;left=0;bottom=0;right=0;strokeColor=#36393d;" vertex="1" parent="lmOcfVDpMMb4SoSBJFk1-25">
          <mxGeometry width="30" height="20" as="geometry">
            <mxRectangle width="30" height="20" as="alternateBounds" />
          </mxGeometry>
        </mxCell>
        <mxCell id="lmOcfVDpMMb4SoSBJFk1-27" value="email" style="shape=partialRectangle;overflow=hidden;connectable=0;fillColor=#eeeeee;top=0;left=0;bottom=0;right=0;align=left;spacingLeft=6;strokeColor=#36393d;" vertex="1" parent="lmOcfVDpMMb4SoSBJFk1-25">
          <mxGeometry x="30" width="50" height="20" as="geometry">
            <mxRectangle width="50" height="20" as="alternateBounds" />
          </mxGeometry>
        </mxCell>
        <mxCell id="lmOcfVDpMMb4SoSBJFk1-28" value="varchar(45)" style="shape=partialRectangle;overflow=hidden;connectable=0;fillColor=#eeeeee;top=0;left=0;bottom=0;right=0;align=left;spacingLeft=6;strokeColor=#36393d;" vertex="1" parent="lmOcfVDpMMb4SoSBJFk1-25">
          <mxGeometry x="80" width="79" height="20" as="geometry">
            <mxRectangle width="79" height="20" as="alternateBounds" />
          </mxGeometry>
        </mxCell>
        <mxCell id="lmOcfVDpMMb4SoSBJFk1-29" value="nn" style="shape=partialRectangle;overflow=hidden;connectable=0;fillColor=#eeeeee;top=0;left=0;bottom=0;right=0;align=left;spacingLeft=6;strokeColor=#36393d;" vertex="1" parent="lmOcfVDpMMb4SoSBJFk1-25">
          <mxGeometry x="159" width="31" height="20" as="geometry">
            <mxRectangle width="31" height="20" as="alternateBounds" />
          </mxGeometry>
        </mxCell>
        <mxCell id="lmOcfVDpMMb4SoSBJFk1-30" style="shape=partialRectangle;overflow=hidden;connectable=0;fillColor=#eeeeee;top=0;left=0;bottom=0;right=0;align=left;spacingLeft=6;strokeColor=#36393d;" vertex="1" parent="lmOcfVDpMMb4SoSBJFk1-25">
          <mxGeometry x="190" width="70" height="20" as="geometry">
            <mxRectangle width="70" height="20" as="alternateBounds" />
          </mxGeometry>
        </mxCell>
        <mxCell id="lmOcfVDpMMb4SoSBJFk1-66" value="harry@naver.com" style="shape=partialRectangle;overflow=hidden;connectable=0;fillColor=#eeeeee;top=0;left=0;bottom=0;right=0;align=left;spacingLeft=6;strokeColor=#36393d;" vertex="1" parent="lmOcfVDpMMb4SoSBJFk1-25">
          <mxGeometry x="260" width="130" height="20" as="geometry">
            <mxRectangle width="130" height="20" as="alternateBounds" />
          </mxGeometry>
        </mxCell>
        <mxCell id="lmOcfVDpMMb4SoSBJFk1-45" style="shape=partialRectangle;collapsible=0;dropTarget=0;pointerEvents=0;fillColor=#eeeeee;points=[[0,0.5],[1,0.5]];portConstraint=eastwest;top=0;left=0;right=0;bottom=0;strokeColor=#36393d;" vertex="1" parent="C-vyLk0tnHw3VtMMgP7b-23">
          <mxGeometry y="120" width="390" height="20" as="geometry" />
        </mxCell>
        <mxCell id="lmOcfVDpMMb4SoSBJFk1-46" style="shape=partialRectangle;overflow=hidden;connectable=0;fillColor=#eeeeee;top=0;left=0;bottom=0;right=0;strokeColor=#36393d;" vertex="1" parent="lmOcfVDpMMb4SoSBJFk1-45">
          <mxGeometry width="30" height="20" as="geometry">
            <mxRectangle width="30" height="20" as="alternateBounds" />
          </mxGeometry>
        </mxCell>
        <mxCell id="lmOcfVDpMMb4SoSBJFk1-47" value="pw " style="shape=partialRectangle;overflow=hidden;connectable=0;fillColor=#eeeeee;top=0;left=0;bottom=0;right=0;align=left;spacingLeft=6;strokeColor=#36393d;" vertex="1" parent="lmOcfVDpMMb4SoSBJFk1-45">
          <mxGeometry x="30" width="50" height="20" as="geometry">
            <mxRectangle width="50" height="20" as="alternateBounds" />
          </mxGeometry>
        </mxCell>
        <mxCell id="lmOcfVDpMMb4SoSBJFk1-48" value="varchar(45)" style="shape=partialRectangle;overflow=hidden;connectable=0;fillColor=#eeeeee;top=0;left=0;bottom=0;right=0;align=left;spacingLeft=6;strokeColor=#36393d;" vertex="1" parent="lmOcfVDpMMb4SoSBJFk1-45">
          <mxGeometry x="80" width="79" height="20" as="geometry">
            <mxRectangle width="79" height="20" as="alternateBounds" />
          </mxGeometry>
        </mxCell>
        <mxCell id="lmOcfVDpMMb4SoSBJFk1-49" value="nn" style="shape=partialRectangle;overflow=hidden;connectable=0;fillColor=#eeeeee;top=0;left=0;bottom=0;right=0;align=left;spacingLeft=6;strokeColor=#36393d;" vertex="1" parent="lmOcfVDpMMb4SoSBJFk1-45">
          <mxGeometry x="159" width="31" height="20" as="geometry">
            <mxRectangle width="31" height="20" as="alternateBounds" />
          </mxGeometry>
        </mxCell>
        <mxCell id="lmOcfVDpMMb4SoSBJFk1-50" style="shape=partialRectangle;overflow=hidden;connectable=0;fillColor=#eeeeee;top=0;left=0;bottom=0;right=0;align=left;spacingLeft=6;strokeColor=#36393d;" vertex="1" parent="lmOcfVDpMMb4SoSBJFk1-45">
          <mxGeometry x="190" width="70" height="20" as="geometry">
            <mxRectangle width="70" height="20" as="alternateBounds" />
          </mxGeometry>
        </mxCell>
        <mxCell id="lmOcfVDpMMb4SoSBJFk1-67" value="1234" style="shape=partialRectangle;overflow=hidden;connectable=0;fillColor=#eeeeee;top=0;left=0;bottom=0;right=0;align=left;spacingLeft=6;strokeColor=#36393d;" vertex="1" parent="lmOcfVDpMMb4SoSBJFk1-45">
          <mxGeometry x="260" width="130" height="20" as="geometry">
            <mxRectangle width="130" height="20" as="alternateBounds" />
          </mxGeometry>
        </mxCell>
        <mxCell id="lmOcfVDpMMb4SoSBJFk1-39" style="shape=partialRectangle;collapsible=0;dropTarget=0;pointerEvents=0;fillColor=#eeeeee;points=[[0,0.5],[1,0.5]];portConstraint=eastwest;top=0;left=0;right=0;bottom=0;strokeColor=#36393d;" vertex="1" parent="C-vyLk0tnHw3VtMMgP7b-23">
          <mxGeometry y="140" width="390" height="20" as="geometry" />
        </mxCell>
        <mxCell id="lmOcfVDpMMb4SoSBJFk1-40" style="shape=partialRectangle;overflow=hidden;connectable=0;fillColor=#eeeeee;top=0;left=0;bottom=0;right=0;strokeColor=#36393d;" vertex="1" parent="lmOcfVDpMMb4SoSBJFk1-39">
          <mxGeometry width="30" height="20" as="geometry">
            <mxRectangle width="30" height="20" as="alternateBounds" />
          </mxGeometry>
        </mxCell>
        <mxCell id="lmOcfVDpMMb4SoSBJFk1-41" value="auth" style="shape=partialRectangle;overflow=hidden;connectable=0;fillColor=#eeeeee;top=0;left=0;bottom=0;right=0;align=left;spacingLeft=6;strokeColor=#36393d;" vertex="1" parent="lmOcfVDpMMb4SoSBJFk1-39">
          <mxGeometry x="30" width="50" height="20" as="geometry">
            <mxRectangle width="50" height="20" as="alternateBounds" />
          </mxGeometry>
        </mxCell>
        <mxCell id="lmOcfVDpMMb4SoSBJFk1-42" value="tinyint(1)" style="shape=partialRectangle;overflow=hidden;connectable=0;fillColor=#eeeeee;top=0;left=0;bottom=0;right=0;align=left;spacingLeft=6;strokeColor=#36393d;" vertex="1" parent="lmOcfVDpMMb4SoSBJFk1-39">
          <mxGeometry x="80" width="79" height="20" as="geometry">
            <mxRectangle width="79" height="20" as="alternateBounds" />
          </mxGeometry>
        </mxCell>
        <mxCell id="lmOcfVDpMMb4SoSBJFk1-43" value="nn" style="shape=partialRectangle;overflow=hidden;connectable=0;fillColor=#eeeeee;top=0;left=0;bottom=0;right=0;align=left;spacingLeft=6;strokeColor=#36393d;" vertex="1" parent="lmOcfVDpMMb4SoSBJFk1-39">
          <mxGeometry x="159" width="31" height="20" as="geometry">
            <mxRectangle width="31" height="20" as="alternateBounds" />
          </mxGeometry>
        </mxCell>
        <mxCell id="lmOcfVDpMMb4SoSBJFk1-44" value="0" style="shape=partialRectangle;overflow=hidden;connectable=0;fillColor=#eeeeee;top=0;left=0;bottom=0;right=0;align=left;spacingLeft=6;strokeColor=#36393d;" vertex="1" parent="lmOcfVDpMMb4SoSBJFk1-39">
          <mxGeometry x="190" width="70" height="20" as="geometry">
            <mxRectangle width="70" height="20" as="alternateBounds" />
          </mxGeometry>
        </mxCell>
        <mxCell id="lmOcfVDpMMb4SoSBJFk1-68" value="1 ( 0 or 1)" style="shape=partialRectangle;overflow=hidden;connectable=0;fillColor=#eeeeee;top=0;left=0;bottom=0;right=0;align=left;spacingLeft=6;strokeColor=#36393d;" vertex="1" parent="lmOcfVDpMMb4SoSBJFk1-39">
          <mxGeometry x="260" width="130" height="20" as="geometry">
            <mxRectangle width="130" height="20" as="alternateBounds" />
          </mxGeometry>
        </mxCell>
        <mxCell id="lmOcfVDpMMb4SoSBJFk1-33" style="shape=partialRectangle;collapsible=0;dropTarget=0;pointerEvents=0;fillColor=#eeeeee;points=[[0,0.5],[1,0.5]];portConstraint=eastwest;top=0;left=0;right=0;bottom=0;strokeColor=#36393d;" vertex="1" parent="C-vyLk0tnHw3VtMMgP7b-23">
          <mxGeometry y="160" width="390" height="20" as="geometry" />
        </mxCell>
        <mxCell id="lmOcfVDpMMb4SoSBJFk1-34" style="shape=partialRectangle;overflow=hidden;connectable=0;fillColor=#eeeeee;top=0;left=0;bottom=0;right=0;strokeColor=#36393d;" vertex="1" parent="lmOcfVDpMMb4SoSBJFk1-33">
          <mxGeometry width="30" height="20" as="geometry">
            <mxRectangle width="30" height="20" as="alternateBounds" />
          </mxGeometry>
        </mxCell>
        <mxCell id="lmOcfVDpMMb4SoSBJFk1-35" value="date" style="shape=partialRectangle;overflow=hidden;connectable=0;fillColor=#eeeeee;top=0;left=0;bottom=0;right=0;align=left;spacingLeft=6;strokeColor=#36393d;" vertex="1" parent="lmOcfVDpMMb4SoSBJFk1-33">
          <mxGeometry x="30" width="50" height="20" as="geometry">
            <mxRectangle width="50" height="20" as="alternateBounds" />
          </mxGeometry>
        </mxCell>
        <mxCell id="lmOcfVDpMMb4SoSBJFk1-36" value="timestamp" style="shape=partialRectangle;overflow=hidden;connectable=0;fillColor=#eeeeee;top=0;left=0;bottom=0;right=0;align=left;spacingLeft=6;strokeColor=#36393d;" vertex="1" parent="lmOcfVDpMMb4SoSBJFk1-33">
          <mxGeometry x="80" width="79" height="20" as="geometry">
            <mxRectangle width="79" height="20" as="alternateBounds" />
          </mxGeometry>
        </mxCell>
        <mxCell id="lmOcfVDpMMb4SoSBJFk1-37" value="nn" style="shape=partialRectangle;overflow=hidden;connectable=0;fillColor=#eeeeee;top=0;left=0;bottom=0;right=0;align=left;spacingLeft=6;strokeColor=#36393d;" vertex="1" parent="lmOcfVDpMMb4SoSBJFk1-33">
          <mxGeometry x="159" width="31" height="20" as="geometry">
            <mxRectangle width="31" height="20" as="alternateBounds" />
          </mxGeometry>
        </mxCell>
        <mxCell id="lmOcfVDpMMb4SoSBJFk1-38" value="now()" style="shape=partialRectangle;overflow=hidden;connectable=0;fillColor=#eeeeee;top=0;left=0;bottom=0;right=0;align=left;spacingLeft=6;strokeColor=#36393d;" vertex="1" parent="lmOcfVDpMMb4SoSBJFk1-33">
          <mxGeometry x="190" width="70" height="20" as="geometry">
            <mxRectangle width="70" height="20" as="alternateBounds" />
          </mxGeometry>
        </mxCell>
        <mxCell id="lmOcfVDpMMb4SoSBJFk1-69" value="2022-10-17 11:13:46" style="shape=partialRectangle;overflow=hidden;connectable=0;fillColor=#eeeeee;top=0;left=0;bottom=0;right=0;align=left;spacingLeft=6;strokeColor=#36393d;" vertex="1" parent="lmOcfVDpMMb4SoSBJFk1-33">
          <mxGeometry x="260" width="130" height="20" as="geometry">
            <mxRectangle width="130" height="20" as="alternateBounds" />
          </mxGeometry>
        </mxCell>
      </root>
    </mxGraphModel>
  </diagram>
</mxfile>
